<svg xmlns="http://www.w3.org/2000/svg" id="Layer_1" version="1.1" viewBox="0 0 70 70">
  <path d="M41.3,36.2c6.2-2.5,10.6-8.6,10.6-15.7S44.3,3.6,35,3.6s-16.9,7.6-16.9,16.9,4.4,13.2,10.7,15.7c-11.4,3.2-19.9,15.1-19.9,29.1v1h52.3v-1c0-14.1-8.5-25.9-19.9-29.1ZM20.1,20.5c0-8.2,6.7-14.9,14.9-14.9s14.9,6.7,14.9,14.9-6.1,14.2-13.7,14.9c-.4,0-.8,0-1.2,0s-.8,0-1.2,0c-7.7-.6-13.7-7-13.7-14.9ZM10.9,64.4c.4-14.5,10.5-26.3,22.9-27,.4,0,.8,0,1.2,0s.8,0,1.2,0c12.5.7,22.5,12.5,22.9,27H10.9Z" fill="#dee2e6"/>
</svg>
