<svg xmlns="http://www.w3.org/2000/svg" id="Layer_1" version="1.1" viewBox="0 0 70 70">
  <path d="M32,30.8c0-3.4-2.8-6.3-6.3-6.3s-6.3,2.8-6.3,6.3,2.8,6.3,6.3,6.3,6.3-2.8,6.3-6.3ZM22.5,30.8c0-1.8,1.5-3.3,3.3-3.3s3.3,1.5,3.3,3.3-1.5,3.3-3.3,3.3-3.3-1.5-3.3-3.3Z" fill="#dee2e6"/>
  <path d="M44.2,43c-3.4,0-6.3,2.8-6.3,6.3s2.8,6.3,6.3,6.3,6.3-2.8,6.3-6.3-2.8-6.3-6.3-6.3ZM44.2,52.5c-1.8,0-3.3-1.5-3.3-3.3s1.5-3.3,3.3-3.3,3.3,1.5,3.3,3.3-1.5,3.3-3.3,3.3Z" fill="#dee2e6"/>
  <rect x="19.7" y="38.6" width="30.7" height="3" transform="translate(-18.1 36.5) rotate(-45)" fill="#dee2e6"/>
  <path d="M55,8.6V3h-3v5.5h-15.5V3h-3v5.5h-15.5V3h-3v5.5H3.9v58.4h62.2V8.6h-11.1ZM63.1,64H6.9V11.6h8.1v5.3h3v-5.3h15.5v5.3h3v-5.3h15.5v5.3h3v-5.3h8.1v52.4Z" fill="#dee2e6"/>
</svg>
